<?xml version="1.0" encoding="UTF-8"?>
<svg width="135.15mm" height="129.44mm" version="1.1" viewBox="0 0 135.15 129.44" xmlns="http://www.w3.org/2000/svg">
<g transform="translate(-36.993 -33.033)">
<g transform="matrix(1.3806 0 0 1.3806 958.39 -558.7)">
<g transform="rotate(-29.387 445.89 1153.8)">
<circle cx="-148.25" cy="40.688" r="46.849" fill="#f2d45c" stop-color="#000000"/>
<path d="m-131.68 84.51a46.849 46.849 0 0 1-53.108-14.504 46.849 46.849 0 0 1-2.6485-54.989 46.849 46.849 0 0 1 51.468-19.54l-12.278 45.211z" fill="#4666a5" stop-color="#000000"/>
<path d="m-122.66 80.098a46.849 46.849 0 0 1-58.65-6.1802 46.849 46.849 0 0 1-6.1348-58.655 46.849 46.849 0 0 1 56.102-18.182l-16.827 43.723z" fill="#4666a5" stop-color="#000000"/>
<circle cx="-139.2" cy="54.101" r="30.869" fill="#fceca8" stop-color="#000000"/>
<path transform="scale(.26458)" d="m-560.31-23.285a177.07 177.07 0 0 0-49.482 7.1426 77.861 77.861 0 0 0-4.6856 26.455 77.861 77.861 0 0 0 77.859 77.861 77.861 77.861 0 0 0 77.861-77.861 77.861 77.861 0 0 0-0.0195-1.582 177.07 177.07 0 0 0-101.53-32.016z" fill="#4666a5" stop-color="#000000"/>
</g>
<path d="m-666.04 471.01c-1.0322 3.4272-1.4204 7.0962-1.3596 10.658 0.051 2.9608 0.51657 5.9383 1.4323 8.6737 1.2868 3.8439 5.3213 13.552 5.5954 10.537 0.2741-3.0146 0.58414-5.6403 1.382-8.34 1.0214-3.4559 2.8746-6.5695 4.3003-9.8601 1.3163-3.038 3.7958-5.8076 3.9274-9.1248 0.11784-2.9702-1.0527-6.0844-2.8687-8.159-1.2062-1.3779-3.0398-2.2662-4.805-2.2469-1.7298 0.0189-3.5405 0.98146-4.8541 2.3063-1.4111 1.4233-2.1494 3.5616-2.75 5.5558z" color="#000000" fill="#253d6b" stroke-width=".96322" style="-inkscape-stroke:none"/>
<path d="m-617.82 428.62a46.849 46.849 0 0 0-3.0856 0.1018c0.42657 0.58994 0.92055 1.147 1.3456 1.6381 0.72633 0.83926 1.7097 1.5761 2.7947 1.8102 1.5223 0.32851 3.2239-7e-3 4.6199-0.69712 8e-3 -4e-3 0.0166-8e-3 0.0248-0.0124a20.601 20.601 0 0 0-1.095-2.2546 20.601 20.601 0 0 0-0.20981-0.36225 46.849 46.849 0 0 0-4.3946-0.22376z" fill="#253d6b"/>
<circle cx="-634.86" cy="437.21" r="3.6352" fill="#253d6b" stop-color="#000000"/>
<circle cx="-634.86" cy="436.19" r="1.553" fill="#8fa9dd" stop-color="#000000"/>
<path d="m-621.59 434.65s-3.2669 3.0062-4.3564 4.901c-1.0158 1.7665-1.7663 3.7756-1.9059 5.8086-0.1623 2.3621 1.2706 6.9884 1.2706 6.9884s-0.1263-4.3172 0.18152-6.4439c0.2197-1.5179 0.62455-3.0176 1.1799-4.4472 0.54385-1.4001 1.3784-2.6693 2.0875-3.9934 0.50492-0.94293 1.5429-2.8135 1.5429-2.8135z" fill="#8fa9dd"/>
<path d="m-619.6 436.01s-1.4057 3.3907-1.3614 5.1733c0.0324 1.3008 1.1799 3.7211 1.1799 3.7211s-0.21953-3.1456-0.18152-4.7195c0.0337-1.3965 0.36304-4.1749 0.36304-4.1749z" fill="#8fa9dd"/>
<path d="m-569.51 493.08s-2.5587-2.299-3.3871-3.7719c-0.88718-1.5775-1.6134-5.1969-1.6134-5.1969s-4.3539 6.1773-6.4099 9.3625c-1.9209 2.9758-4.0478 5.8629-5.4889 9.0984-1.4787 3.3198-3.1725 10.431-3.1725 10.431m20.072-19.923c-4.4258 8.5888-11.45 15.561-20.072 19.923" color="#000000" fill="#253d6b" stroke-linejoin="round" stroke-width=".79375" style="-inkscape-stroke:none"/>
<ellipse transform="rotate(-24.381)" cx="-793.71" cy="186.74" rx="2.7228" ry="3.1766" fill="#8fa9dd" stop-color="#000000"/>
<ellipse transform="rotate(31.181)" cx="-284.54" cy="766.91" rx="3.9934" ry="3.4488" fill="#8fa9dd" stop-color="#000000"/>
<ellipse transform="rotate(-35.838)" cx="-811.02" cy="44.355" rx="1.9967" ry="2.3597" fill="#8fa9dd" stop-color="#000000"/>
<g transform="matrix(.50278 0 0 .50278 -669.82 335.97)" fill="#374548" stroke-linecap="round" stroke-linejoin="round" stroke-width=".35282">
<path d="m90.596 263.83h60.998l-3.7365 6.4717h-61.018z" color="#000000" fill="#8fa9dd"/>
<path d="m90.596 263.65a0.17643 0.17643 0 0 0-0.15234 0.0879l-3.7559 6.4726a0.17643 0.17643 0 0 0 0.15234 0.26563h61.018a0.17643 0.17643 0 0 0 0.1543-0.0898l3.7363-6.4707a0.17643 0.17643 0 0 0-0.1543-0.26562zm0.10156 0.35351h60.592l-3.5332 6.1191h-60.609z" color="#000000" fill="#84adfd"/>
<g fill="#4666a5">
<path d="m147.86 270.3 1.6331 8.4023 3.6058-7.6624-1.5024-7.2116z" color="#000000"/>
<path d="m151.62 263.65a0.17643 0.17643 0 0 0-0.18164 0.0859l-3.7363 6.4707a0.17643 0.17643 0 0 0-0.0195 0.1211l1.6328 8.4023a0.17643 0.17643 0 0 0 0.33203 0.043l3.6055-7.6621a0.17643 0.17643 0 0 0 0.0137-0.11133l-1.502-7.2129a0.17643 0.17643 0 0 0-0.14453-0.13672zm-0.10743 0.66211 1.3965 6.7012-3.3516 7.1211-1.5176-7.8086z" color="#000000"/>
</g>
<g fill="#253d6b">
<path d="m149.49 278.7h-48.228l30.649 53.937-9.6155 0.15023-35.457-62.49h61.018z" color="#000000"/>
<path d="m86.84 270.12a0.17643 0.17643 0 0 0-0.15234 0.26368l35.457 62.488a0.17643 0.17643 0 0 0 0.15625 0.0898l9.6152-0.15039a0.17643 0.17643 0 0 0 0.15039-0.26367l-30.5-53.672h47.924a0.17643 0.17643 0 0 0 0.17383-0.21093l-1.6328-8.4024a0.17643 0.17643 0 0 0-0.17383-0.14258zm0.30469 0.35352h60.568l1.5644 8.0488h-48.014a0.17643 0.17643 0 0 0-0.15429 0.26367l30.504 53.678-9.2148 0.14453z" color="#000000"/>
</g>
<g fill="#4666a5">
<path d="m101.26 278.7 30.649 53.937 4.0565-6.9112-27.044-46.876z" color="#000000"/>
<path d="m101.27 278.52a0.17643 0.17643 0 0 0-0.1582 0.26367l30.65 53.938a0.17643 0.17643 0 0 0 0.30468 2e-3l4.0566-6.9121a0.17643 0.17643 0 0 0 2e-3 -0.17773l-27.045-46.875a0.17643 0.17643 0 0 0-0.14844-0.0879zm0.30078 0.35937 7.2539 0.14063 26.943 46.701-3.8516 6.5586z" color="#000000"/>
</g>
<path d="m118.84 288.92h22.837l-3.7561 6.7609h-22.837z" color="#000000" fill="#8fa9dd"/>
<path d="m118.84 288.74a0.17643 0.17643 0 0 0-0.1543 0.0899l-3.7559 6.7617a0.17643 0.17643 0 0 0 0.1543 0.26172h22.836a0.17643 0.17643 0 0 0 0.1543-0.0918l3.7559-6.7598a0.17643 0.17643 0 0 0-0.1543-0.26172zm0.10351 0.35157h22.434l-3.5606 6.4082h-22.434z" color="#000000" fill="#84adfd"/>
<g fill="#253d6b">
<path d="m115.09 295.68 3.4556 7.0614h20.884l-1.5024-7.0614z" color="#000000"/>
<path d="m115.09 295.5a0.17643 0.17643 0 0 0-0.15821 0.25391l3.4551 7.0625a0.17643 0.17643 0 0 0 0.15821 0.0976h20.885a0.17643 0.17643 0 0 0 0.17188-0.21289l-1.502-7.0606a0.17643 0.17643 0 0 0-0.17383-0.14057zm0.2832 0.35352h22.41l1.4277 6.709h-20.557z" color="#000000"/>
</g>
<g fill="#4666a5">
<path d="m141.68 288.92 1.5024 6.6107-3.7561 7.2116-1.5024-7.0614z" color="#000000"/>
<path d="m141.7 288.74a0.17643 0.17643 0 0 0-0.17968 0.0879l-3.7559 6.7617a0.17643 0.17643 0 0 0-0.0176 0.12109l1.502 7.0625a0.17643 0.17643 0 0 0 0.33008 0.0449l3.7559-7.2129a0.17643 0.17643 0 0 0 0.0156-0.11914l-1.5039-6.6113a0.17643 0.17643 0 0 0-0.14649-0.13476zm-0.0957 0.66211 1.3867 6.0976-3.498 6.7168-1.3867-6.5137z" color="#000000"/>
</g>
<path d="m155.95 263.68h17.879l-40.29 70.972h-9.7738l36.333-63.424h-8.355z" color="#000000" fill="#8fa9dd"/>
<path d="m155.95 263.5a0.17643 0.17643 0 0 0-0.1543 0.0918l-4.207 7.5488a0.17643 0.17643 0 0 0 0.1543 0.26172h8.0527l-36.184 63.16a0.17643 0.17643 0 0 0 0.15235 0.26367h9.7754a0.17643 0.17643 0 0 0 0.15234-0.0899l40.291-70.973a0.17643 0.17643 0 0 0-0.15429-0.26367zm0.10352 0.35351h17.473l-40.09 70.619h-9.3652l36.18-63.158a0.17643 0.17643 0 0 0-0.15234-0.26563h-8.0547z" color="#000000" fill="#84adfd"/>
<g fill="#253d6b">
<path d="m160.1 271.22-4.1482 7.175h-3.1551l-1.0517-7.175z" color="#000000"/>
<path d="m151.74 271.05a0.17643 0.17643 0 0 0-0.17383 0.20313l1.0508 7.1738a0.17643 0.17643 0 0 0 0.17578 0.15234h3.1543a0.17643 0.17643 0 0 0 0.15235-0.0879l4.1484-7.1758a0.17643 0.17643 0 0 0-0.15234-0.26563zm0.20508 0.35352h7.8457l-3.9453 6.8223h-2.9004z" color="#000000"/>
</g>
<g fill="#4666a5">
<path d="m173.83 263.68 3.4556 7.3619-40.115 69.562-3.6309-5.9516z" color="#000000"/>
<path d="m173.84 263.5a0.17643 0.17643 0 0 0-0.16016 0.0879l-40.291 70.973a0.17643 0.17643 0 0 0 4e-3 0.17968l3.6309 5.9512a0.17643 0.17643 0 0 0 0.30274-4e-3l40.115-69.562a0.17643 0.17643 0 0 0 6e-3 -0.16211l-3.4551-7.3633a0.17643 0.17643 0 0 0-0.15258-0.09953zm-0.0234 0.56055 3.2734 6.9688-39.922 69.225-3.4219-5.6094z" color="#000000"/>
</g>
<g fill="#253d6b">
<path d="m137.17 340.6h-10.066l-3.3385-5.9516h9.7738z" color="#000000"/>
<path d="m123.77 334.47a0.17643 0.17643 0 0 0-0.15235 0.26367l3.3379 5.9512a0.17643 0.17643 0 0 0 0.1543 0.0898h10.066a0.17643 0.17643 0 0 0 0.1504-0.26758l-3.6309-5.9512a0.17643 0.17643 0 0 0-0.15039-0.0859zm0.30078 0.35352h9.375l3.416 5.5996h-9.6484z" color="#000000"/>
</g>
</g>
</g>
</g>
</svg>
