<?xml version="1.0" encoding="UTF-8"?>
<svg version="1.1" viewBox="0 0 800 800" xml:space="preserve" xmlns="http://www.w3.org/2000/svg"><defs><clipPath id="a"><path d="m0 600h600v-600h-600z"/></clipPath></defs><g transform="matrix(1.3333 0 0 -1.3333 0 800)"><g clip-path="url(#a)" fill="#fb9400"><g transform="translate(135.83 403.1)"><path d="m0 0c1.65 0 3 1.35 3 3v52.065c0 1.65 1.35 3 3 3h316.33c1.65 0 3-1.35 3-3v-52.065c0-1.65 1.35-3 3-3h69.84c1.65 0 3 1.35 3 3v127.9c0 1.65-1.35 3-3 3h-468c-1.65 0-3-1.35-3-3v-127.9c0-1.65 1.35-3 3-3z" fill="#fb9400"/></g><g transform="translate(464.16 196.91)"><path d="m0 0c-1.65 0-3-1.35-3-3v-52.065c0-1.651-1.35-3-3-3h-316.33c-1.65 0-3 1.349-3 3v52.065c0 1.65-1.35 3-3 3h-69.831c-1.65 0-3-1.35-3-3v-127.9c0-1.651 1.35-3 3-3h468c1.65 0 3 1.349 3 3v127.9c0 1.65-1.35 3-3 3z" fill="#fb9400"/></g><g transform="translate(413.66 265.08)"><path d="m0 0c0-1.65-1.35-3-3-3h-221.31c-1.649 0-3 1.35-3 3v69.85c0 1.65 1.351 3 3 3h221.31c1.65 0 3-1.35 3-3z" fill="#fb9400"/></g></g></g></svg>
