<?xml version="1.0" encoding="UTF-8" standalone="no"?>
<!-- Created with Inkscape (http://www.inkscape.org/) -->

<svg
   width="135.14832mm"
   height="129.44208mm"
   viewBox="0 0 135.14832 129.44208"
   version="1.1"
   id="svg5"
   sodipodi:docname="logo.svg"
   inkscape:version="1.1.2 (08b2f3d93c, 2022-04-05)"
   xmlns:inkscape="http://www.inkscape.org/namespaces/inkscape"
   xmlns:sodipodi="http://sodipodi.sourceforge.net/DTD/sodipodi-0.dtd"
   xmlns="http://www.w3.org/2000/svg"
   xmlns:svg="http://www.w3.org/2000/svg">
  <sodipodi:namedview
     id="namedview56"
     pagecolor="#ffffff"
     bordercolor="#666666"
     borderopacity="1.0"
     inkscape:pageshadow="2"
     inkscape:pageopacity="0.0"
     inkscape:pagecheckerboard="0"
     inkscape:document-units="mm"
     showgrid="false"
     fit-margin-top="0"
     fit-margin-left="0"
     fit-margin-right="0"
     fit-margin-bottom="0"
     inkscape:zoom="0.75187991"
     inkscape:cx="256.68993"
     inkscape:cy="436.90488"
     inkscape:window-width="1920"
     inkscape:window-height="1016"
     inkscape:window-x="0"
     inkscape:window-y="27"
     inkscape:window-maximized="1"
     inkscape:current-layer="svg5" />
  <defs
     id="defs2" />
  <g
     id="layer1"
     transform="translate(-36.992599,-33.032772)">
    <g
       id="g254678"
       transform="matrix(1.3805685,0,0,1.3805685,958.39497,-558.70141)">
      <g
         id="g105627-1-6"
         transform="rotate(-29.387223,445.89041,1153.7727)">
        <circle
           style="fill:#f2d45c;fill-opacity:1;stroke:none;stroke-width:0.79375;stroke-linecap:butt;stroke-linejoin:round;stroke-miterlimit:4;stroke-dasharray:none;stroke-dashoffset:11.8054;stroke-opacity:1;stop-color:#000000"
           id="path99105-4-8"
           cx="-148.24756"
           cy="40.687862"
           r="46.848797" />
        <path
           style="fill:#4666a5;fill-opacity:1;stroke:none;stroke-width:0.79375;stroke-linecap:butt;stroke-linejoin:round;stroke-miterlimit:4;stroke-dasharray:none;stroke-dashoffset:11.8054;stroke-opacity:1;stop-color:#000000"
           id="circle216911-4"
           d="m -131.68098,84.509754 a 46.848797,46.848797 0 0 1 -53.10772,-14.503731 46.848797,46.848797 0 0 1 -2.64846,-54.988856 46.848797,46.848797 0 0 1 51.46803,-19.5404758 l -12.27843,45.2111708 z" />
        <path
           style="display:inline;fill:#4666a5;fill-opacity:1;stroke:none;stroke-width:0.79375;stroke-linecap:butt;stroke-linejoin:round;stroke-miterlimit:4;stroke-dasharray:none;stroke-dashoffset:11.8054;stroke-opacity:1;stop-color:#000000"
           id="path99105-5-7-2"
           d="m -122.6598,80.097768 a 46.848797,46.848797 0 0 1 -58.64981,-6.180161 46.848797,46.848797 0 0 1 -6.13482,-58.65458 46.848797,46.848797 0 0 1 56.1017,-18.1822755 l -16.82698,43.7225625 z" />
        <circle
           style="fill:#fceca8;fill-opacity:1;stroke:none;stroke-width:3.22098;stroke-linecap:butt;stroke-linejoin:round;stroke-miterlimit:4;stroke-dasharray:none;stroke-dashoffset:11.8054;stroke-opacity:1;stop-color:#000000"
           id="path99613-9-5"
           cx="-139.1987"
           cy="54.100742"
           r="30.868866" />
        <path
           id="path103209-6-3"
           style="fill:#4666a5;fill-opacity:1;stroke:none;stroke-width:11.3386;stroke-linecap:butt;stroke-linejoin:round;stroke-miterlimit:4;stroke-dasharray:none;stroke-dashoffset:11.8054;stroke-opacity:1;stop-color:#000000"
           d="m -560.30664,-23.285156 a 177.06632,177.06632 0 0 0 -49.48242,7.142578 77.86067,77.86067 0 0 0 -4.68555,26.455078 77.86067,77.86067 0 0 0 77.85938,77.861328 77.86067,77.86067 0 0 0 77.86132,-77.861328 77.86067,77.86067 0 0 0 -0.0195,-1.5820312 177.06632,177.06632 0 0 0 -101.5332,-32.0156248 z"
           transform="scale(0.26458333)" />
      </g>
      <path
         style="color:#000000;fill:#253d6b;fill-opacity:1;stroke-width:0.963219;-inkscape-stroke:none"
         d="m -666.04225,471.006 c -1.03222,3.42715 -1.42036,7.0962 -1.35957,10.65766 0.051,2.96079 0.51657,5.93832 1.4323,8.67374 1.28683,3.84387 5.32126,13.55205 5.59535,10.53743 0.2741,-3.01462 0.58414,-5.6403 1.38204,-8.34003 1.02139,-3.45588 2.87461,-6.56953 4.30032,-9.86012 1.31629,-3.03805 3.79579,-5.80755 3.92739,-9.12483 0.11784,-2.97019 -1.05273,-6.0844 -2.86872,-8.15903 -1.20618,-1.37794 -3.03975,-2.26621 -4.805,-2.2469 -1.72976,0.0189 -3.54052,0.98146 -4.85406,2.30631 -1.41112,1.42332 -2.14943,3.56164 -2.75005,5.55577 z"
         id="path62752-4-4-0-55-0-4-2" />
      <path
         id="path106403-5-0"
         style="fill:#253d6b;fill-opacity:1;stroke:none;stroke-width:0.264583px;stroke-linecap:butt;stroke-linejoin:miter;stroke-opacity:1"
         d="m -617.81699,428.61951 a 46.848797,46.848797 0 0 0 -3.08559,0.1018 c 0.42657,0.58994 0.92055,1.14696 1.34565,1.63814 0.72633,0.83926 1.70972,1.5761 2.79466,1.81023 1.52233,0.32851 3.22387,-0.007 4.61987,-0.69712 0.008,-0.004 0.0166,-0.008 0.0248,-0.0124 a 20.600635,20.600635 0 0 0 -1.09502,-2.25464 20.600635,20.600635 0 0 0 -0.20981,-0.36225 46.848797,46.848797 0 0 0 -4.39456,-0.22376 z" />
      <circle
         style="fill:#253d6b;fill-opacity:1;stroke:none;stroke-width:0.963395;stroke-linecap:butt;stroke-linejoin:round;stroke-miterlimit:4;stroke-dasharray:none;stroke-dashoffset:11.8054;stroke-opacity:1;stop-color:#000000"
         id="path106778-6-7"
         cx="-634.86151"
         cy="437.21158"
         r="3.6351724" />
      <circle
         style="fill:#8fa9dd;fill-opacity:1;stroke:none;stroke-width:0.411575;stroke-linecap:butt;stroke-linejoin:round;stroke-miterlimit:4;stroke-dasharray:none;stroke-dashoffset:11.8054;stroke-opacity:1;stop-color:#000000"
         id="path106778-6-7-1"
         cx="-634.86151"
         cy="436.18777"
         r="1.5529916" />
      <path
         style="fill:#8fa9dd;fill-opacity:1;stroke:none;stroke-width:0.264583px;stroke-linecap:butt;stroke-linejoin:miter;stroke-opacity:1"
         d="m -621.5942,434.65012 c 0,0 -3.26687,3.00616 -4.35644,4.901 -1.01579,1.76653 -1.76626,3.77562 -1.90594,5.80859 -0.1623,2.36211 1.27063,6.98845 1.27063,6.98845 0,0 -0.1263,-4.31724 0.18152,-6.4439 0.2197,-1.51786 0.62455,-3.01758 1.17987,-4.4472 0.54385,-1.40011 1.3784,-2.66927 2.08746,-3.9934 0.50492,-0.94293 1.5429,-2.81354 1.5429,-2.81354 z"
         id="path106893-0-6" />
      <path
         style="fill:#8fa9dd;fill-opacity:1;stroke:none;stroke-width:0.264583px;stroke-linecap:butt;stroke-linejoin:miter;stroke-opacity:1"
         d="m -619.59749,436.01151 c 0,0 -1.40572,3.39069 -1.36139,5.17328 0.0324,1.30083 1.17987,3.72112 1.17987,3.72112 0,0 -0.21953,-3.14561 -0.18152,-4.71948 0.0337,-1.39648 0.36304,-4.17492 0.36304,-4.17492 z"
         id="path106895-9-1" />
      <path
         style="color:#000000;fill:#253d6b;fill-opacity:1;stroke-width:0.79375;stroke-linejoin:round;-inkscape-stroke:none"
         d="m -569.5147,493.08204 c 0,0 -2.55871,-2.29904 -3.38706,-3.7719 -0.88718,-1.57748 -1.61338,-5.19687 -1.61338,-5.19687 0,0 -4.35386,6.17729 -6.40987,9.36248 -1.92089,2.97584 -4.04775,5.86289 -5.48889,9.0984 -1.47873,3.31984 -3.17246,10.43108 -3.17246,10.43108 m 20.07166,-19.92319 c -4.42584,8.58883 -11.4502,15.56124 -20.07166,19.9232"
         id="path62764-5-2-6-1-3-6-7" />
      <ellipse
         style="opacity:1;fill:#8fa9dd;fill-opacity:1;stroke:none;stroke-width:0.79375;stroke-linecap:butt;stroke-linejoin:round;stroke-miterlimit:4;stroke-dasharray:none;stroke-dashoffset:11.8054;stroke-opacity:1;stop-color:#000000"
         id="path213014-4"
         cx="-793.71405"
         cy="186.73615"
         rx="2.7227755"
         ry="3.1765711"
         transform="rotate(-24.381103)" />
      <ellipse
         style="opacity:1;fill:#8fa9dd;fill-opacity:1;stroke:none;stroke-width:0.79375;stroke-linecap:butt;stroke-linejoin:round;stroke-miterlimit:4;stroke-dasharray:none;stroke-dashoffset:11.8054;stroke-opacity:1;stop-color:#000000"
         id="path213016-7"
         cx="-284.53592"
         cy="766.90851"
         rx="3.9934039"
         ry="3.448849"
         transform="rotate(31.180755)" />
      <ellipse
         style="opacity:1;fill:#8fa9dd;fill-opacity:1;stroke:none;stroke-width:0.79375;stroke-linecap:butt;stroke-linejoin:round;stroke-miterlimit:4;stroke-dasharray:none;stroke-dashoffset:11.8054;stroke-opacity:1;stop-color:#000000"
         id="path213018-5"
         cx="-811.01703"
         cy="44.355164"
         rx="1.996702"
         ry="2.3597386"
         transform="rotate(-35.837655)" />
      <g
         id="g3406"
         transform="matrix(0.50278241,0,0,0.50278241,-669.82021,335.97297)"
         style="fill:#374548;stroke:#000000;stroke-width:0.35282;stroke-linecap:round;stroke-linejoin:round;stroke-miterlimit:4;stroke-dasharray:none">
        <g
           id="path2823"
           style="fill:#84adfd;fill-opacity:1;stroke-width:0.35282;stroke-miterlimit:4;stroke-dasharray:none">
          <path
             style="color:#000000;fill:#8fa9dd;fill-opacity:1;stroke:none;stroke-width:0.35282;stroke-miterlimit:4;stroke-dasharray:none"
             d="m 90.596153,263.82561 h 60.998407 l -3.73646,6.47174 H 86.840093 Z"
             id="path221899" />
          <path
             style="color:#000000;fill:#84adfd;fill-opacity:1;stroke:none;stroke-width:0.35282;stroke-miterlimit:4;stroke-dasharray:none"
             d="m 90.595703,263.64844 a 0.17642765,0.17642765 0 0 0 -0.152344,0.0879 l -3.755859,6.47265 a 0.17642765,0.17642765 0 0 0 0.152344,0.26563 h 61.017576 a 0.17642765,0.17642765 0 0 0 0.1543,-0.0898 l 3.73633,-6.47071 a 0.17642765,0.17642765 0 0 0 -0.1543,-0.26562 z m 0.101563,0.35351 h 60.591794 l -3.5332,6.11914 H 87.146484 Z"
             id="path221901" />
        </g>
        <g
           id="path2825"
           style="fill:#4666a5;fill-opacity:1;stroke-width:0.35282;stroke-miterlimit:4;stroke-dasharray:none">
          <path
             style="color:#000000;fill:#4666a5;fill-opacity:1;stroke:none;stroke-width:0.35282;stroke-miterlimit:4;stroke-dasharray:none"
             d="m 147.8581,270.29735 1.63306,8.40227 3.60582,-7.66236 -1.50242,-7.21165 z"
             id="path221905" />
          <path
             style="color:#000000;fill:#4666a5;fill-opacity:1;stroke:none;stroke-width:0.35282;stroke-miterlimit:4;stroke-dasharray:none"
             d="m 151.62305,263.65234 a 0.17642765,0.17642765 0 0 0 -0.18164,0.0859 l -3.73633,6.4707 a 0.17642765,0.17642765 0 0 0 -0.0195,0.1211 l 1.63281,8.40234 a 0.17642765,0.17642765 0 0 0 0.33203,0.043 l 3.60547,-7.66211 a 0.17642765,0.17642765 0 0 0 0.0137,-0.11133 l -1.50195,-7.21289 a 0.17642765,0.17642765 0 0 0 -0.14453,-0.13672 z m -0.10743,0.66211 1.39649,6.70117 -3.35156,7.1211 -1.51758,-7.8086 z"
             id="path221907" />
        </g>
        <g
           id="path2827"
           style="fill:#253d6b;fill-opacity:1;stroke-width:0.35282;stroke-miterlimit:4;stroke-dasharray:none">
          <path
             style="color:#000000;fill:#253d6b;fill-opacity:1;stroke:none;stroke-width:0.35282;stroke-miterlimit:4;stroke-dasharray:none"
             d="m 149.49116,278.69962 h -48.2278 l 30.64945,53.937 -9.61552,0.15023 -35.457199,-62.4895 H 147.8581 Z"
             id="path221911" />
          <path
             style="color:#000000;fill:#253d6b;fill-opacity:1;stroke:none;stroke-width:0.35282;stroke-miterlimit:4;stroke-dasharray:none"
             d="m 86.839844,270.12109 a 0.17642765,0.17642765 0 0 0 -0.152344,0.26368 l 35.45703,62.48828 a 0.17642765,0.17642765 0 0 0 0.15625,0.0898 l 9.61524,-0.15039 a 0.17642765,0.17642765 0 0 0 0.15039,-0.26367 l -30.5,-53.67188 h 47.92382 a 0.17642765,0.17642765 0 0 0 0.17383,-0.21093 l -1.63281,-8.40235 a 0.17642765,0.17642765 0 0 0 -0.17383,-0.14258 z m 0.304687,0.35352 h 60.568359 l 1.56445,8.04883 h -48.01367 a 0.17642765,0.17642765 0 0 0 -0.15429,0.26367 l 30.5039,53.67773 -9.21484,0.14453 z"
             id="path221913" />
        </g>
        <g
           id="path2829"
           style="fill:#4666a5;fill-opacity:1;stroke-width:0.35282;stroke-miterlimit:4;stroke-dasharray:none">
          <path
             style="color:#000000;fill:#4666a5;fill-opacity:1;stroke:none;stroke-width:0.35282;stroke-miterlimit:4;stroke-dasharray:none"
             d="m 101.26336,278.69962 30.64945,53.937 4.05654,-6.91115 -27.04363,-46.87562 z"
             id="path221917" />
          <path
             style="color:#000000;fill:#4666a5;fill-opacity:1;stroke:none;stroke-width:0.35282;stroke-miterlimit:4;stroke-dasharray:none"
             d="m 101.26758,278.52344 a 0.17642765,0.17642765 0 0 0 -0.1582,0.26367 l 30.65039,53.9375 a 0.17642765,0.17642765 0 0 0 0.30468,0.002 l 4.05664,-6.91211 a 0.17642765,0.17642765 0 0 0 0.002,-0.17773 l -27.04492,-46.875 a 0.17642765,0.17642765 0 0 0 -0.14844,-0.0879 z m 0.30078,0.35937 7.25391,0.14063 26.94335,46.70117 -3.85156,6.55859 z"
             id="path221919" />
        </g>
        <g
           id="path3108"
           style="fill:#84adfd;fill-opacity:1;stroke-width:0.35282;stroke-miterlimit:4;stroke-dasharray:none">
          <path
             style="color:#000000;fill:#8fa9dd;fill-opacity:1;stroke:none;stroke-width:0.35282;stroke-miterlimit:4;stroke-dasharray:none"
             d="m 118.84172,288.91608 h 22.83684 l -3.75606,6.76092 h -22.83684 z"
             id="path221923" />
          <path
             style="color:#000000;fill:#84adfd;fill-opacity:1;stroke:none;stroke-width:0.35282;stroke-miterlimit:4;stroke-dasharray:none"
             d="m 118.8418,288.74023 a 0.17642765,0.17642765 0 0 0 -0.1543,0.0899 l -3.75586,6.76172 a 0.17642765,0.17642765 0 0 0 0.1543,0.26172 h 22.83593 a 0.17642765,0.17642765 0 0 0 0.1543,-0.0918 l 3.75586,-6.75977 a 0.17642765,0.17642765 0 0 0 -0.1543,-0.26172 z m 0.10351,0.35157 h 22.4336 l -3.56055,6.4082 h -22.43359 z"
             id="path221925" />
        </g>
        <g
           id="path3110"
           style="fill:#253d6b;fill-opacity:1;stroke-width:0.35282;stroke-miterlimit:4;stroke-dasharray:none">
          <path
             style="color:#000000;fill:#253d6b;fill-opacity:1;stroke:none;stroke-width:0.35282;stroke-miterlimit:4;stroke-dasharray:none"
             d="m 115.08566,295.677 3.45557,7.06139 h 20.88369 L 137.9225,295.677 Z"
             id="path221929" />
          <path
             style="color:#000000;fill:#253d6b;fill-opacity:1;stroke:none;stroke-width:0.35282;stroke-miterlimit:4;stroke-dasharray:none"
             d="m 115.08594,295.5 a 0.17642765,0.17642765 0 0 0 -0.15821,0.25391 l 3.45508,7.0625 a 0.17642765,0.17642765 0 0 0 0.15821,0.0976 h 20.88476 a 0.17642765,0.17642765 0 0 0 0.17188,-0.21289 l -1.50196,-7.06055 A 0.17642765,0.17642765 0 0 0 137.92187,295.5 Z m 0.2832,0.35352 h 22.41016 l 1.42773,6.70898 h -20.55664 z"
             id="path221931" />
        </g>
        <g
           id="path3112"
           style="fill:#4666a5;fill-opacity:1;stroke-width:0.35282;stroke-miterlimit:4;stroke-dasharray:none">
          <path
             style="color:#000000;fill:#4666a5;fill-opacity:1;stroke:none;stroke-width:0.35282;stroke-miterlimit:4;stroke-dasharray:none"
             d="m 141.67856,288.91608 1.50242,6.61067 -3.75606,7.21164 -1.50242,-7.06139 z"
             id="path221935" />
          <path
             style="color:#000000;fill:#4666a5;fill-opacity:1;stroke:none;stroke-width:0.35282;stroke-miterlimit:4;stroke-dasharray:none"
             d="m 141.70312,288.74219 a 0.17642765,0.17642765 0 0 0 -0.17968,0.0879 l -3.75586,6.76172 a 0.17642765,0.17642765 0 0 0 -0.0176,0.12109 l 1.50195,7.0625 a 0.17642765,0.17642765 0 0 0 0.33008,0.0449 l 3.75586,-7.21289 a 0.17642765,0.17642765 0 0 0 0.0156,-0.11914 l -1.50391,-6.61133 a 0.17642765,0.17642765 0 0 0 -0.14649,-0.13476 z m -0.0957,0.66211 1.38672,6.09765 -3.49805,6.7168 -1.38672,-6.51367 z"
             id="path221937" />
        </g>
        <g
           id="path3114"
           style="fill:#84adfd;fill-opacity:1;stroke-width:0.35282;stroke-miterlimit:4;stroke-dasharray:none">
          <path
             style="color:#000000;fill:#8fa9dd;fill-opacity:1;stroke:none;stroke-width:0.35282;stroke-miterlimit:4;stroke-dasharray:none"
             d="m 155.95159,263.67537 h 17.87884 l -40.29001,70.97246 h -9.77384 l 36.33319,-63.42375 h -8.35497 z"
             id="path221941" />
          <path
             style="color:#000000;fill:#84adfd;fill-opacity:1;stroke:none;stroke-width:0.35282;stroke-miterlimit:4;stroke-dasharray:none"
             d="m 155.95117,263.49805 a 0.17642765,0.17642765 0 0 0 -0.1543,0.0918 l -4.20703,7.54883 a 0.17642765,0.17642765 0 0 0 0.1543,0.26172 h 8.05273 l -36.18359,63.16016 a 0.17642765,0.17642765 0 0 0 0.15235,0.26367 h 9.77539 a 0.17642765,0.17642765 0 0 0 0.15234,-0.0899 l 40.29101,-70.97265 a 0.17642765,0.17642765 0 0 0 -0.15429,-0.26367 z m 0.10352,0.35351 h 17.47265 L 133.4375,334.4707 h -9.36523 l 36.17968,-63.1582 a 0.17642765,0.17642765 0 0 0 -0.15234,-0.26563 h -8.05469 z"
             id="path221943" />
        </g>
        <g
           id="path3229"
           style="fill:#253d6b;fill-opacity:1;stroke-width:0.35282;stroke-miterlimit:4;stroke-dasharray:none">
          <path
             style="color:#000000;fill:#253d6b;fill-opacity:1;stroke:none;stroke-width:0.35282;stroke-miterlimit:4;stroke-dasharray:none"
             d="m 160.09977,271.22408 -4.14818,7.17505 h -3.15509 l -1.0517,-7.17505 z"
             id="path221947" />
          <path
             style="color:#000000;fill:#253d6b;fill-opacity:1;stroke:none;stroke-width:0.35282;stroke-miterlimit:4;stroke-dasharray:none"
             d="m 151.74414,271.04687 a 0.17642765,0.17642765 0 0 0 -0.17383,0.20313 l 1.05078,7.17383 a 0.17642765,0.17642765 0 0 0 0.17578,0.15234 h 3.1543 a 0.17642765,0.17642765 0 0 0 0.15235,-0.0879 l 4.14843,-7.17578 a 0.17642765,0.17642765 0 0 0 -0.15234,-0.26563 z m 0.20508,0.35352 h 7.8457 l -3.94531,6.82227 h -2.90039 z"
             id="path221949" />
        </g>
        <g
           id="path3231"
           style="fill:#4666a5;fill-opacity:1;stroke-width:0.35282;stroke-miterlimit:4;stroke-dasharray:none">
          <path
             style="color:#000000;fill:#4666a5;fill-opacity:1;stroke:none;stroke-width:0.35282;stroke-miterlimit:4;stroke-dasharray:none"
             d="m 173.83043,263.67537 3.45557,7.36189 -40.11471,69.56221 -3.63087,-5.95164 z"
             id="path221953" />
          <path
             style="color:#000000;fill:#4666a5;fill-opacity:1;stroke:none;stroke-width:0.35282;stroke-miterlimit:4;stroke-dasharray:none"
             d="m 173.83789,263.5 a 0.17642765,0.17642765 0 0 0 -0.16016,0.0879 l -40.29101,70.97266 a 0.17642765,0.17642765 0 0 0 0.004,0.17968 l 3.63086,5.95118 a 0.17642765,0.17642765 0 0 0 0.30274,-0.004 l 40.11523,-69.5625 a 0.17642765,0.17642765 0 0 0 0.006,-0.16211 l -3.45508,-7.36328 A 0.17642765,0.17642765 0 0 0 173.83789,263.5 Z m -0.0234,0.56055 3.27344,6.96875 -39.92187,69.22461 -3.42188,-5.60938 z"
             id="path221955" />
        </g>
        <g
           id="path3233"
           style="fill:#253d6b;fill-opacity:1;stroke-width:0.35282;stroke-miterlimit:4;stroke-dasharray:none">
          <path
             style="color:#000000;fill:#253d6b;fill-opacity:1;stroke:none;stroke-width:0.35282;stroke-miterlimit:4;stroke-dasharray:none"
             d="m 137.17129,340.59947 h -10.06624 l -3.33847,-5.95164 h 9.77384 z"
             id="path221959" />
          <path
             style="color:#000000;fill:#253d6b;fill-opacity:1;stroke:none;stroke-width:0.35282;stroke-miterlimit:4;stroke-dasharray:none"
             d="m 123.76563,334.4707 a 0.17642765,0.17642765 0 0 0 -0.15235,0.26367 l 3.33789,5.95118 a 0.17642765,0.17642765 0 0 0 0.1543,0.0898 h 10.0664 a 0.17642765,0.17642765 0 0 0 0.1504,-0.26758 l -3.63086,-5.95117 a 0.17642765,0.17642765 0 0 0 -0.15039,-0.0859 z m 0.30078,0.35352 h 9.375 l 3.41601,5.59961 h -9.64844 z"
             id="path221961" />
        </g>
      </g>
    </g>
  </g>
</svg>
