<?xml version="1.0" encoding="UTF-8"?>
<svg enable-background="new 0 0 1000 1000" version="1.1" viewBox="0 0 1000 1000" xml:space="preserve" xmlns="http://www.w3.org/2000/svg" xmlns:cc="http://creativecommons.org/ns#" xmlns:dc="http://purl.org/dc/elements/1.1/" xmlns:rdf="http://www.w3.org/1999/02/22-rdf-syntax-ns#"><metadata><rdf:RDF><cc:Work rdf:about=""><dc:format>image/svg+xml</dc:format><dc:type rdf:resource="http://purl.org/dc/dcmitype/StillImage"/><dc:title/></cc:Work></rdf:RDF></metadata><rect width="1e3" height="1e3" fill="#90b2cc"/><path d="m730.46 780.59c-24.707-38.611-127.16-76.114-146.54-82.932l-1.0888-1.1056-0.19987 0.082v-64.724c24.459-17.012 45.763-35.832 52.856-44.879 10.426-13.305 32.76-40.566 46.935-89.282 1.5832 0.51754 3.2021 0.94673 4.8736 1.1771 21.434 2.9307 41.413-19.815 44.621-50.814 2.3668-22.811-5.0261-43.697-17.618-54.333 11.308-26.787 17.559-56.227 17.559-87.129 0-123.85-100.4-224.25-224.25-224.25-22.534 0-44.277 3.3609-64.795 9.5452-39.99-43.331-128.53-111.07-231.02-10.935-139.85 136.64 21.796 389.7-62.464 429.54 91.965-11.896 114.65-142.1 105.63-256.7-6.5809-83.703 52.869-131.61 112.72-122.38-51.381 41.095-84.329 104.27-84.329 175.18 0 30.901 6.2537 60.344 17.559 87.131-12.592 10.637-19.981 31.52-17.622 54.331 3.2147 30.999 23.197 53.745 44.633 50.814 1.4801-0.20618 2.9223-0.54806 4.336-0.97725 14.172 48.586 36.456 75.796 46.87 89.083 7.1521 9.1181 28.739 28.174 53.452 45.297v64.225s-0.43024 0.14622-1.1329 0.38816l-0.96883-0.38816-1.0919 1.1056c-19.394 6.8291-121.83 44.327-146.53 82.932-22.741 67.685-28.971 219.41-28.971 219.41h505.55c-1e-3 -2e-3 -6.2285-151.72-28.974-219.41z" fill="#475a6d" stroke-width="1.0519"/></svg>

