<?xml version="1.0" encoding="UTF-8"?>
<svg enable-background="new 0 0 1000 1000" version="1.1" viewBox="0 0 1000 1000" xml:space="preserve" xmlns="http://www.w3.org/2000/svg" xmlns:cc="http://creativecommons.org/ns#" xmlns:dc="http://purl.org/dc/elements/1.1/" xmlns:rdf="http://www.w3.org/1999/02/22-rdf-syntax-ns#"><metadata><rdf:RDF><cc:Work rdf:about=""><dc:format>image/svg+xml</dc:format><dc:type rdf:resource="http://purl.org/dc/dcmitype/StillImage"/><dc:title/></cc:Work></rdf:RDF></metadata><rect width="1e3" height="1e3" fill="#90b2cc"/><path d="m743.78 757c-35.992-41.672-90.063-50.705-139.48-63.438h-25.543v-82.966c28.983-12.904 55.051-28.509 62.806-38.403 11.115-14.181 31.923-53.342 44.325-112.9 0.4529 0.0843 0.89948 0.17484 1.3555 0.23698 22.213 3.0397 42.922-20.545 46.255-52.68 3.3262-32.078-11.925-60.552-34.068-63.698 7.7056-23.865 10.47-52.231-0.10533-82.336-56.238-160.11 7.6403-188.69 7.6403-188.69s-62.195-2.7827-110.44 37.15c33.27-51.577 48.244-64.892 48.244-64.892s-69.868-14.969-144.73 61.559c16.634-41.593 36.598-62.743 36.598-62.743s-156.39 1.1839-212.95 114.32c-32.231 64.455-34.732 134.28-26.939 187.08-18.946 6.8398-31.314 33.054-28.287 62.256 3.3262 32.135 24.044 55.719 46.256 52.68 0.45606-0.0621 0.90369-0.15272 1.3545-0.23698 12.399 59.556 33.208 98.717 44.327 112.9 7.7561 9.8953 33.828 25.504 62.817 38.409v91.314c-0.48133-2.7332-0.74991-5.518-0.74991-8.3544h-26.716c-49.416 12.735-103.54 21.766-139.53 63.438-22.425 25.965-61.376 243-61.376 243h610.32s-38.951-217.04-61.378-243zm-46.925-414.09c-0.39918-0.0211-0.80047-0.0295-1.1975-0.0327v-4e-3c0.39707 3e-3 0.79836 0.0169 1.1975 0.0369zm2.4467 0.21803c-0.62774-0.0864-1.2544-0.1443-1.8822-0.18854 0.62669 0.0442 1.2544 0.10217 1.8822 0.18854zm-393-0.24962c-0.42235 3e-3 -0.84681 0.0116-1.2713 0.0337 0.42446-0.0221 0.84892-0.0326 1.2713-0.0358v2e-3zm-5.2125 0.52241c0.51715-0.10743 1.0385-0.20012 1.5662-0.27279 0.6014-0.0832 1.2039-0.13798 1.8032-0.18011-0.5993 0.0442-1.2018 0.0979-1.8032 0.18011-0.52663 0.0716-1.0459 0.17273-1.5662 0.27279z" fill="#475a6e" stroke-width="1.0533"/></svg>

